{
  "accessors": [
    {
      "bufferView": 2,
      "componentType": 5126,
      "count": 965,
      "max": [
        0.41742798686027527,
        0.38890600204467773,
        -4.654303073883057
      ],
      "min": [
        -0.4171859920024872,
        -0.34153199195861816,
        -5.968944072723389
      ],
      "type": "VEC3"
    },
    {
      "bufferView": 2,
      "byteOffset": 11580,
      "componentType": 5126,
      "count": 965,
      "max": [
        0.9968103766441345,
        0.9998424649238586,
        0.9983039498329163
      ],
      "min": [
        -0.9972519278526306,
        -0.9997066259384155,
        -0.9999966621398926
      ],
      "type": "VEC3"
    },
    {
      "bufferView": 1,
      "componentType": 5126,
      "count": 965,
      "max": [
        0.9935759902000427,
        0.9911649823188782
      ],
      "min": [
        0.00749199977144599,
        0.005080997943878174
      ],
      "type": "VEC2"
    },
    {
      "bufferView": 0,
      "componentType": 5125,
      "count": 5340,
      "type": "SCALAR"
    },
    {
      "bufferView": 2,
      "byteOffset": 23160,
      "componentType": 5126,
      "count": 270,
      "max": [
        0.12302900105714798,
        0.3283039927482605,
        -5.382574081420898
      ],
      "min": [
        -0.12278799712657928,
        0.12236999720335007,
        -5.524940013885498
      ],
      "type": "VEC3"
    },
    {
      "bufferView": 2,
      "byteOffset": 26400,
      "componentType": 5126,
      "count": 270,
      "max": [
        0.9594084024429321,
        0.996791422367096,
        0.9997289776802063
      ],
      "min": [
        -0.9594120383262634,
        -0.9627509117126465,
        -0.9989960789680481
      ],
      "type": "VEC3"
    },
    {
      "bufferView": 1,
      "byteOffset": 7720,
      "componentType": 5126,
      "count": 270,
      "max": [
        0.8814659714698792,
        0.9935759902000427
      ],
      "min": [
        0.3462330102920532,
        0.8453019857406616
      ],
      "type": "VEC2"
    },
    {
      "bufferView": 0,
      "byteOffset": 21360,
      "componentType": 5125,
      "count": 1296,
      "type": "SCALAR"
    },
    {
      "bufferView": 2,
      "byteOffset": 29640,
      "componentType": 5126,
      "count": 1006,
      "max": [
        0.5651100277900696,
        0.3485420048236847,
        -3.2811670303344727
      ],
      "min": [
        -0.5556830167770386,
        -0.9557080268859863,
        -5.126595973968506
      ],
      "type": "VEC3"
    },
    {
      "bufferView": 2,
      "byteOffset": 41712,
      "componentType": 5126,
      "count": 1006,
      "max": [
        0.9985683560371399,
        0.9999033212661743,
        0.9999757409095764
      ],
      "min": [
        -0.9991999864578247,
        -0.9999119639396667,
        -0.9524255394935608
      ],
      "type": "VEC3"
    },
    {
      "bufferView": 1,
      "byteOffset": 9880,
      "componentType": 5126,
      "count": 1006,
      "max": [
        0.9923700094223022,
        0.9851369857788086
      ],
      "min": [
        0.008697999641299248,
        0.005080997943878174
      ],
      "type": "VEC2"
    },
    {
      "bufferView": 0,
      "byteOffset": 26544,
      "componentType": 5125,
      "count": 4260,
      "type": "SCALAR"
    },
    {
      "bufferView": 2,
      "byteOffset": 53784,
      "componentType": 5126,
      "count": 102,
      "max": [
        0.15880200266838074,
        0.2859399914741516,
        -5.571094989776611
      ],
      "min": [
        -0.15880200266838074,
        0.18611399829387665,
        -5.727478981018066
      ],
      "type": "VEC3"
    },
    {
      "bufferView": 2,
      "byteOffset": 55008,
      "componentType": 5126,
      "count": 102,
      "max": [
        0.9851933717727661,
        0.9942391514778137,
        0.9836494326591492
      ],
      "min": [
        -0.9851934909820557,
        -0.10280153155326843,
        -0.9616775512695313
      ],
      "type": "VEC3"
    },
    {
      "bufferView": 1,
      "byteOffset": 17928,
      "componentType": 5126,
      "count": 102,
      "max": [
        0.923658013343811,
        0.9754940271377563
      ],
      "min": [
        0.04124600067734718,
        0.06414997577667236
      ],
      "type": "VEC2"
    },
    {
      "bufferView": 0,
      "byteOffset": 43584,
      "componentType": 5125,
      "count": 540,
      "type": "SCALAR"
    },
    {
      "bufferView": 2,
      "byteOffset": 56232,
      "componentType": 5126,
      "count": 256,
      "max": [
        0.4384549856185913,
        0.4263719916343689,
        -3.665963888168335
      ],
      "min": [
        -0.4382140040397644,
        -0.4075169861316681,
        -5.115478992462158
      ],
      "type": "VEC3"
    },
    {
      "bufferView": 2,
      "byteOffset": 59304,
      "componentType": 5126,
      "count": 256,
      "max": [
        0.9979487657546997,
        0.9999942183494568,
        0.6303086876869202
      ],
      "min": [
        -0.9994992017745972,
        -0.998741865158081,
        -0.9984875321388245
      ],
      "type": "VEC3"
    },
    {
      "bufferView": 1,
      "byteOffset": 18744,
      "componentType": 5126,
      "count": 256,
      "max": [
        0.9899590015411377,
        0.9164249897003174
      ],
      "min": [
        0.01472499966621399,
        0.07017701864242554
      ],
      "type": "VEC2"
    },
    {
      "bufferView": 0,
      "byteOffset": 45744,
      "componentType": 5125,
      "count": 1209,
      "type": "SCALAR"
    },
    {
      "bufferView": 2,
      "byteOffset": 62376,
      "componentType": 5126,
      "count": 364,
      "max": [
        0.7466319799423218,
        0.6765360236167908,
        0.00725100003182888
      ],
      "min": [
        -0.7463909983634949,
        -0.3308959901332855,
        -0.644631028175354
      ],
      "type": "VEC3"
    },
    {
      "bufferView": 2,
      "byteOffset": 66744,
      "componentType": 5126,
      "count": 364,
      "max": [
        0.9994059801101685,
        0.9548783898353577,
        0.9973722696304321
      ],
      "min": [
        -0.9994061589241028,
        -0.9677461385726929,
        -0.998126745223999
      ],
      "type": "VEC3"
    },
    {
      "bufferView": 1,
      "byteOffset": 20792,
      "componentType": 5126,
      "count": 364,
      "max": [
        0.38721901178359985,
        0.9887539744377136
      ],
      "min": [
        0.01351999957114458,
        0.47280800342559814
      ],
      "type": "VEC2"
    },
    {
      "bufferView": 0,
      "byteOffset": 50580,
      "componentType": 5125,
      "count": 1608,
      "type": "SCALAR"
    },
    {
      "bufferView": 2,
      "byteOffset": 71112,
      "componentType": 5126,
      "count": 315,
      "max": [
        0.5692179799079895,
        0.3052769899368286,
        -0.5003319978713989
      ],
      "min": [
        -0.5675269961357117,
        -0.46069198846817017,
        -3.6635470390319824
      ],
      "type": "VEC3"
    },
    {
      "bufferView": 2,
      "byteOffset": 74892,
      "componentType": 5126,
      "count": 315,
      "max": [
        0.9923703670501709,
        0.9986855387687683,
        0.9996976256370544
      ],
      "min": [
        -0.992370069026947,
        -0.9998576641082764,
        -0.9969929456710815
      ],
      "type": "VEC3"
    },
    {
      "bufferView": 1,
      "byteOffset": 23704,
      "componentType": 5126,
      "count": 315,
      "max": [
        0.9947810173034668,
        0.6608630418777466
      ],
      "min": [
        0.43543800711631775,
        0.005080997943878174
      ],
      "type": "VEC2"
    },
    {
      "bufferView": 0,
      "byteOffset": 57012,
      "componentType": 5125,
      "count": 1506,
      "type": "SCALAR"
    },
    {
      "bufferView": 2,
      "byteOffset": 78672,
      "componentType": 5126,
      "count": 5373,
      "max": [
        1.2941279411315918,
        0.7097830176353455,
        -0.6511489748954773
      ],
      "min": [
        -1.2939469814300537,
        -0.7784010171890259,
        -5.5579681396484375
      ],
      "type": "VEC3"
    },
    {
      "bufferView": 2,
      "byteOffset": 143148,
      "componentType": 5126,
      "count": 5373,
      "max": [
        0.9990518689155579,
        0.99919593334198,
        0.999549150466919
      ],
      "min": [
        -0.9990383982658386,
        -0.9997016191482544,
        -0.993095338344574
      ],
      "type": "VEC3"
    },
    {
      "bufferView": 1,
      "byteOffset": 26224,
      "componentType": 5126,
      "count": 5373,
      "max": [
        0.9891260266304016,
        0.9915040135383606
      ],
      "min": [
        0.011873999610543251,
        0.007818996906280518
      ],
      "type": "VEC2"
    },
    {
      "bufferView": 0,
      "byteOffset": 63036,
      "componentType": 5125,
      "count": 28833,
      "type": "SCALAR"
    },
    {
      "bufferView": 2,
      "byteOffset": 207624,
      "componentType": 5126,
      "count": 183,
      "max": [
        0.2446410059928894,
        0.3117479979991913,
        -5.471197128295898
      ],
      "min": [
        -0.24597400426864624,
        -0.262129008769989,
        -5.989524841308594
      ],
      "type": "VEC3"
    },
    {
      "bufferView": 2,
      "byteOffset": 209820,
      "componentType": 5126,
      "count": 183,
      "max": [
        0.9981997609138489,
        0.9329419732093811,
        0.7906729578971863
      ],
      "min": [
        -0.9909479022026062,
        -0.9997583627700806,
        -0.9992950558662415
      ],
      "type": "VEC3"
    },
    {
      "bufferView": 1,
      "byteOffset": 69208,
      "componentType": 5126,
      "count": 183,
      "max": [
        0.9925860166549683,
        0.974914014339447
      ],
      "min": [
        0.007031000219285488,
        0.026120007038116455
      ],
      "type": "VEC2"
    },
    {
      "bufferView": 0,
      "byteOffset": 178368,
      "componentType": 5125,
      "count": 951,
      "type": "SCALAR"
    }
  ],
  "asset": {
    "extras": {
      "author": "100 Ways to Win (https://sketchfab.com/100-Ways-to-Win)",
      "license": "CC-BY-4.0 (http://creativecommons.org/licenses/by/4.0/)",
      "source": "https://sketchfab.com/3d-models/grace-augustin-avatar-avatar-2009-6a41f5204cd74053a5d21b4e433995a2",
      "title": "Grace Augustin (Avatar) - Avatar (2009)"
    },
    "generator": "Sketchfab-13.21.0",
    "version": "2.0"
  },
  "bufferViews": [
    {
      "buffer": 0,
      "byteLength": 182172,
      "name": "floatBufferViews",
      "target": 34963
    },
    {
      "buffer": 0,
      "byteLength": 70672,
      "byteOffset": 182172,
      "byteStride": 8,
      "name": "floatBufferViews",
      "target": 34962
    },
    {
      "buffer": 0,
      "byteLength": 212016,
      "byteOffset": 252844,
      "byteStride": 12,
      "name": "floatBufferViews",
      "target": 34962
    }
  ],
  "buffers": [
    {
      "byteLength": 464860,
      "uri": "scene.bin"
    }
  ],
  "images": [
    {
      "uri": "textures/NaviGraceHead_baseColor.png"
    },
    {
      "uri": "textures/NaviHead_baseColor.png"
    },
    {
      "uri": "textures/NaviBag_baseColor.png"
    },
    {
      "uri": "textures/Navi_eyes_baseColor.png"
    },
    {
      "uri": "textures/NaviFemaleShirt_baseColor.png"
    },
    {
      "uri": "textures/NaviClothing_baseColor.png"
    },
    {
      "uri": "textures/NaviClothing2_baseColor.png"
    },
    {
      "uri": "textures/NaviBody_baseColor.png"
    },
    {
      "uri": "textures/NaviHair_baseColor.png"
    }
  ],
  "materials": [
    {
      "doubleSided": true,
      "name": "NaviGraceHead",
      "pbrMetallicRoughness": {
        "baseColorTexture": {
          "index": 0
        },
        "metallicFactor": 0.0,
        "roughnessFactor": 0.673268
      }
    },
    {
      "doubleSided": true,
      "name": "NaviHead",
      "pbrMetallicRoughness": {
        "baseColorTexture": {
          "index": 1
        },
        "metallicFactor": 0.0,
        "roughnessFactor": 0.673268
      }
    },
    {
      "doubleSided": true,
      "name": "NaviBag",
      "pbrMetallicRoughness": {
        "baseColorTexture": {
          "index": 2
        },
        "metallicFactor": 0.0,
        "roughnessFactor": 0.673268
      }
    },
    {
      "doubleSided": true,
      "name": "Navi_eyes",
      "pbrMetallicRoughness": {
        "baseColorTexture": {
          "index": 3
        },
        "metallicFactor": 0.0,
        "roughnessFactor": 0.673268
      }
    },
    {
      "doubleSided": true,
      "name": "NaviFemaleShirt",
      "pbrMetallicRoughness": {
        "baseColorTexture": {
          "index": 4
        },
        "metallicFactor": 0.0,
        "roughnessFactor": 0.673268
      }
    },
    {
      "doubleSided": true,
      "name": "NaviClothing",
      "pbrMetallicRoughness": {
        "baseColorTexture": {
          "index": 5
        },
        "metallicFactor": 0.0,
        "roughnessFactor": 0.673268
      }
    },
    {
      "doubleSided": true,
      "name": "NaviClothing2",
      "pbrMetallicRoughness": {
        "baseColorTexture": {
          "index": 6
        },
        "metallicFactor": 0.0,
        "roughnessFactor": 0.673268
      }
    },
    {
      "doubleSided": true,
      "name": "NaviBody",
      "pbrMetallicRoughness": {
        "baseColorTexture": {
          "index": 7
        },
        "metallicFactor": 0.0,
        "roughnessFactor": 0.673268
      }
    },
    {
      "doubleSided": true,
      "name": "NaviHair",
      "pbrMetallicRoughness": {
        "baseColorTexture": {
          "index": 8
        },
        "metallicFactor": 0.0,
        "roughnessFactor": 0.673268
      }
    }
  ],
  "meshes": [
    {
      "name": "Object_0",
      "primitives": [
        {
          "attributes": {
            "NORMAL": 1,
            "POSITION": 0,
            "TEXCOORD_0": 2
          },
          "indices": 3,
          "material": 0,
          "mode": 4
        }
      ]
    },
    {
      "name": "Object_1",
      "primitives": [
        {
          "attributes": {
            "NORMAL": 5,
            "POSITION": 4,
            "TEXCOORD_0": 6
          },
          "indices": 7,
          "material": 1,
          "mode": 4
        }
      ]
    },
    {
      "name": "Object_2",
      "primitives": [
        {
          "attributes": {
            "NORMAL": 9,
            "POSITION": 8,
            "TEXCOORD_0": 10
          },
          "indices": 11,
          "material": 2,
          "mode": 4
        }
      ]
    },
    {
      "name": "Object_3",
      "primitives": [
        {
          "attributes": {
            "NORMAL": 13,
            "POSITION": 12,
            "TEXCOORD_0": 14
          },
          "indices": 15,
          "material": 3,
          "mode": 4
        }
      ]
    },
    {
      "name": "Object_4",
      "primitives": [
        {
          "attributes": {
            "NORMAL": 17,
            "POSITION": 16,
            "TEXCOORD_0": 18
          },
          "indices": 19,
          "material": 4,
          "mode": 4
        }
      ]
    },
    {
      "name": "Object_5",
      "primitives": [
        {
          "attributes": {
            "NORMAL": 21,
            "POSITION": 20,
            "TEXCOORD_0": 22
          },
          "indices": 23,
          "material": 5,
          "mode": 4
        }
      ]
    },
    {
      "name": "Object_6",
      "primitives": [
        {
          "attributes": {
            "NORMAL": 25,
            "POSITION": 24,
            "TEXCOORD_0": 26
          },
          "indices": 27,
          "material": 6,
          "mode": 4
        }
      ]
    },
    {
      "name": "Object_7",
      "primitives": [
        {
          "attributes": {
            "NORMAL": 29,
            "POSITION": 28,
            "TEXCOORD_0": 30
          },
          "indices": 31,
          "material": 7,
          "mode": 4
        }
      ]
    },
    {
      "name": "Object_8",
      "primitives": [
        {
          "attributes": {
            "NORMAL": 33,
            "POSITION": 32,
            "TEXCOORD_0": 34
          },
          "indices": 35,
          "material": 8,
          "mode": 4
        }
      ]
    }
  ],
  "nodes": [
    {
      "children": [
        1
      ],
      "matrix": [
        1.0,
        0.0,
        0.0,
        0.0,
        0.0,
        2.220446049250313e-16,
        -1.0,
        0.0,
        0.0,
        1.0,
        2.220446049250313e-16,
        0.0,
        0.0,
        0.0,
        0.0,
        1.0
      ],
      "name": "Sketchfab_model"
    },
    {
      "children": [
        2
      ],
      "name": "root"
    },
    {
      "children": [
        3,
        5,
        7,
        9,
        11,
        13,
        15,
        17,
        19
      ],
      "matrix": [
        1.0,
        0.0,
        0.0,
        0.0,
        0.0,
        2.220446049250313e-16,
        1.0,
        0.0,
        0.0,
        -1.0,
        2.220446049250313e-16,
        0.0,
        0.0,
        0.0,
        0.0,
        1.0
      ],
      "name": "GLTF_SceneRootNode"
    },
    {
      "children": [
        4
      ],
      "matrix": [
        1.0,
        0.0,
        0.0,
        0.0,
        0.0,
        -1.685873969314855e-07,
        0.9999999999999858,
        0.0,
        0.0,
        -0.9999999999999858,
        -1.685873969314855e-07,
        0.0,
        0.0,
        0.0,
        0.0,
        1.0
      ],
      "name": "Na'viGraceHead_0"
    },
    {
      "mesh": 0,
      "name": "Object_4"
    },
    {
      "children": [
        6
      ],
      "matrix": [
        1.0,
        0.0,
        0.0,
        0.0,
        0.0,
        -1.685873969314855e-07,
        0.9999999999999858,
        0.0,
        0.0,
        -0.9999999999999858,
        -1.685873969314855e-07,
        0.0,
        0.0,
        0.0,
        0.0,
        1.0
      ],
      "name": "Na'viGraceMouth_1"
    },
    {
      "mesh": 1,
      "name": "Object_6"
    },
    {
      "children": [
        8
      ],
      "matrix": [
        1.0,
        0.0,
        0.0,
        0.0,
        0.0,
        -1.685873969314855e-07,
        0.9999999999999858,
        0.0,
        0.0,
        -0.9999999999999858,
        -1.685873969314855e-07,
        0.0,
        0.0,
        0.0,
        0.0,
        1.0
      ],
      "name": "Na'viBag_2"
    },
    {
      "mesh": 2,
      "name": "Object_8"
    },
    {
      "children": [
        10
      ],
      "matrix": [
        1.0,
        0.0,
        0.0,
        0.0,
        0.0,
        -1.685873969314855e-07,
        0.9999999999999858,
        0.0,
        0.0,
        -0.9999999999999858,
        -1.685873969314855e-07,
        0.0,
        0.0,
        0.0,
        0.0,
        1.0
      ],
      "name": "Na'viGraceEyes_3"
    },
    {
      "mesh": 3,
      "name": "Object_10"
    },
    {
      "children": [
        12
      ],
      "matrix": [
        1.0,
        0.0,
        0.0,
        0.0,
        0.0,
        -1.685873969314855e-07,
        0.9999999999999858,
        0.0,
        0.0,
        -0.9999999999999858,
        -1.685873969314855e-07,
        0.0,
        0.0,
        0.0,
        0.0,
        1.0
      ],
      "name": "Na'viFemaleShirt_4"
    },
    {
      "mesh": 4,
      "name": "Object_12"
    },
    {
      "children": [
        14
      ],
      "matrix": [
        1.0,
        0.0,
        0.0,
        0.0,
        0.0,
        -1.685873969314855e-07,
        0.9999999999999858,
        0.0,
        0.0,
        -0.9999999999999858,
        -1.685873969314855e-07,
        0.0,
        0.0,
        0.0,
        0.0,
        1.0
      ],
      "name": "Na'viClothing_5"
    },
    {
      "mesh": 5,
      "name": "Object_14"
    },
    {
      "children": [
        16
      ],
      "matrix": [
        1.0,
        0.0,
        0.0,
        0.0,
        0.0,
        -1.685873969314855e-07,
        0.9999999999999858,
        0.0,
        0.0,
        -0.9999999999999858,
        -1.685873969314855e-07,
        0.0,
        0.0,
        0.0,
        0.0,
        1.0
      ],
      "name": "Na'viClothing2_6"
    },
    {
      "mesh": 6,
      "name": "Object_16"
    },
    {
      "children": [
        18
      ],
      "matrix": [
        1.0,
        0.0,
        0.0,
        0.0,
        0.0,
        -1.685873969314855e-07,
        0.9999999999999858,
        0.0,
        0.0,
        -0.9999999999999858,
        -1.685873969314855e-07,
        0.0,
        0.0,
        0.0,
        0.0,
        1.0
      ],
      "name": "Na'viBody_7"
    },
    {
      "mesh": 7,
      "name": "Object_18"
    },
    {
      "children": [
        20
      ],
      "matrix": [
        1.0,
        0.0,
        0.0,
        0.0,
        0.0,
        -1.685873969314855e-07,
        0.9999999999999858,
        0.0,
        0.0,
        -0.9999999999999858,
        -1.685873969314855e-07,
        0.0,
        0.0,
        0.0,
        0.0,
        1.0
      ],
      "name": "Na'viHair_8"
    },
    {
      "mesh": 8,
      "name": "Object_20"
    }
  ],
  "samplers": [
    {
      "magFilter": 9729,
      "minFilter": 9987,
      "wrapS": 10497,
      "wrapT": 10497
    }
  ],
  "scene": 0,
  "scenes": [
    {
      "name": "Sketchfab_Scene",
      "nodes": [
        0
      ]
    }
  ],
  "textures": [
    {
      "sampler": 0,
      "source": 0
    },
    {
      "sampler": 0,
      "source": 1
    },
    {
      "sampler": 0,
      "source": 2
    },
    {
      "sampler": 0,
      "source": 3
    },
    {
      "sampler": 0,
      "source": 4
    },
    {
      "sampler": 0,
      "source": 5
    },
    {
      "sampler": 0,
      "source": 6
    },
    {
      "sampler": 0,
      "source": 7
    },
    {
      "sampler": 0,
      "source": 8
    }
  ]
}
