{
  "accessors": [
    {
      "bufferView": 2,
      "componentType": 5126,
      "count": 79,
      "max": [
        9.707168579101563,
        10.140660285949707,
        2.282280921936035
      ],
      "min": [
        -9.712498664855957,
        -9.279007911682129,
        2.282280921936035
      ],
      "type": "VEC3"
    },
    {
      "bufferView": 2,
      "byteOffset": 948,
      "componentType": 5126,
      "count": 79,
      "max": [
        0.0,
        -0.0,
        1.0
      ],
      "min": [
        0.0,
        -0.0,
        1.0
      ],
      "type": "VEC3"
    },
    {
      "bufferView": 1,
      "componentType": 5126,
      "count": 79,
      "max": [
        0.6000000238418579,
        0.4749999940395355
      ],
      "min": [
        0.4000000059604645,
        0.2750000059604645
      ],
      "type": "VEC2"
    },
    {
      "bufferView": 0,
      "componentType": 5125,
      "count": 192,
      "type": "SCALAR"
    },
    {
      "bufferView": 2,
      "byteOffset": 1896,
      "componentType": 5126,
      "count": 79,
      "max": [
        9.707168579101563,
        10.140660285949707,
        2.282280921936035
      ],
      "min": [
        -9.712498664855957,
        -9.279007911682129,
        2.282280921936035
      ],
      "type": "VEC3"
    },
    {
      "bufferView": 2,
      "byteOffset": 2844,
      "componentType": 5126,
      "count": 79,
      "max": [
        0.0,
        -0.0,
        1.0
      ],
      "min": [
        0.0,
        -0.0,
        1.0
      ],
      "type": "VEC3"
    },
    {
      "bufferView": 1,
      "byteOffset": 632,
      "componentType": 5126,
      "count": 79,
      "max": [
        0.6000000238418579,
        0.4749999940395355
      ],
      "min": [
        0.4000000059604645,
        0.2750000059604645
      ],
      "type": "VEC2"
    },
    {
      "bufferView": 0,
      "byteOffset": 768,
      "componentType": 5125,
      "count": 192,
      "type": "SCALAR"
    },
    {
      "bufferView": 2,
      "byteOffset": 3792,
      "componentType": 5126,
      "count": 55,
      "max": [
        -0.8832910060882568,
        9.2150297164917,
        7.089532852172852
      ],
      "min": [
        -1.628288984298706,
        8.841313362121582,
        6.25065803527832
      ],
      "type": "VEC3"
    },
    {
      "bufferView": 2,
      "byteOffset": 4452,
      "componentType": 5126,
      "count": 55,
      "max": [
        0.04097707197070122,
        0.9991604685783386,
        1.0
      ],
      "min": [
        -0.04097926244139671,
        -0.9991602897644043,
        -0.4394615888595581
      ],
      "type": "VEC3"
    },
    {
      "bufferView": 1,
      "byteOffset": 1264,
      "componentType": 5126,
      "count": 55,
      "max": [
        0.625,
        1.0
      ],
      "min": [
        0.125,
        0.0
      ],
      "type": "VEC2"
    },
    {
      "bufferView": 0,
      "byteOffset": 1536,
      "componentType": 5125,
      "count": 120,
      "type": "SCALAR"
    },
    {
      "bufferView": 2,
      "byteOffset": 5112,
      "componentType": 5126,
      "count": 55,
      "max": [
        -0.9637730121612549,
        -7.6506028175354,
        6.849575996398926
      ],
      "min": [
        -1.320044994354248,
        -8.386408805847168,
        6.0107011795043945
      ],
      "type": "VEC3"
    },
    {
      "bufferView": 2,
      "byteOffset": 5772,
      "componentType": 5126,
      "count": 55,
      "max": [
        0.9999913573265076,
        0.0041698915883898735,
        1.0
      ],
      "min": [
        -0.9999914169311523,
        -0.004169608931988478,
        -0.4394645094871521
      ],
      "type": "VEC3"
    },
    {
      "bufferView": 1,
      "byteOffset": 1704,
      "componentType": 5126,
      "count": 55,
      "max": [
        0.625,
        1.0
      ],
      "min": [
        0.125,
        0.0
      ],
      "type": "VEC2"
    },
    {
      "bufferView": 0,
      "byteOffset": 2016,
      "componentType": 5125,
      "count": 120,
      "type": "SCALAR"
    },
    {
      "bufferView": 2,
      "byteOffset": 6432,
      "componentType": 5126,
      "count": 86,
      "max": [
        9.997335433959961,
        10.430826187133789,
        2.282280921936035
      ],
      "min": [
        -10.002664566040039,
        -9.569173812866211,
        2.1877729892730713
      ],
      "type": "VEC3"
    },
    {
      "bufferView": 2,
      "byteOffset": 7464,
      "componentType": 5126,
      "count": 86,
      "max": [
        0.30969107151031494,
        0.30969107151031494,
        0.9999578595161438
      ],
      "min": [
        -0.30969107151031494,
        -0.30969107151031494,
        0.950837254524231
      ],
      "type": "VEC3"
    },
    {
      "bufferView": 1,
      "byteOffset": 2144,
      "componentType": 5126,
      "count": 86,
      "max": [
        0.6000000238418579,
        0.4749999940395355
      ],
      "min": [
        0.4000000059604645,
        0.2750000059604645
      ],
      "type": "VEC2"
    },
    {
      "bufferView": 0,
      "byteOffset": 2496,
      "componentType": 5125,
      "count": 192,
      "type": "SCALAR"
    },
    {
      "bufferView": 2,
      "byteOffset": 8496,
      "componentType": 5126,
      "count": 457,
      "max": [
        12.497335433959961,
        12.930826187133789,
        2.1877729892730713
      ],
      "min": [
        -12.502664566040039,
        -12.069173812866211,
        0.18777300417423248
      ],
      "type": "VEC3"
    },
    {
      "bufferView": 2,
      "byteOffset": 13980,
      "componentType": 5126,
      "count": 457,
      "max": [
        1.0,
        1.0,
        1.0
      ],
      "min": [
        -1.0,
        -1.0,
        -1.0
      ],
      "type": "VEC3"
    },
    {
      "bufferView": 1,
      "byteOffset": 2832,
      "componentType": 5126,
      "count": 457,
      "max": [
        0.875,
        1.0
      ],
      "min": [
        0.125,
        0.0
      ],
      "type": "VEC2"
    },
    {
      "bufferView": 0,
      "byteOffset": 3264,
      "componentType": 5125,
      "count": 1536,
      "type": "SCALAR"
    },
    {
      "bufferView": 2,
      "byteOffset": 19464,
      "componentType": 5126,
      "count": 9785,
      "max": [
        9.26005744934082,
        9.949112892150879,
        6.2634358406066895
      ],
      "min": [
        -9.030301094055176,
        0.9090700149536133,
        2.141442060470581
      ],
      "type": "VEC3"
    },
    {
      "bufferView": 2,
      "byteOffset": 136884,
      "componentType": 5126,
      "count": 9785,
      "max": [
        1.0,
        1.0,
        1.0
      ],
      "min": [
        -1.0,
        -1.0,
        -1.0
      ],
      "type": "VEC3"
    },
    {
      "bufferView": 1,
      "byteOffset": 6488,
      "componentType": 5126,
      "count": 9785,
      "max": [
        1.0,
        1.0
      ],
      "min": [
        0.0,
        0.0
      ],
      "type": "VEC2"
    },
    {
      "bufferView": 0,
      "byteOffset": 9408,
      "componentType": 5125,
      "count": 50058,
      "type": "SCALAR"
    },
    {
      "bufferView": 2,
      "byteOffset": 254304,
      "componentType": 5126,
      "count": 9062,
      "max": [
        9.185053825378418,
        9.695856094360352,
        5.3430070877075195
      ],
      "min": [
        -9.372294425964355,
        0.95209801197052,
        2.2639129161834717
      ],
      "type": "VEC3"
    },
    {
      "bufferView": 2,
      "byteOffset": 363048,
      "componentType": 5126,
      "count": 9062,
      "max": [
        1.0,
        1.0,
        1.0
      ],
      "min": [
        -1.0,
        -1.0,
        -1.0
      ],
      "type": "VEC3"
    },
    {
      "bufferView": 1,
      "byteOffset": 84768,
      "componentType": 5126,
      "count": 9062,
      "max": [
        1.0,
        1.0
      ],
      "min": [
        0.0,
        0.0
      ],
      "type": "VEC2"
    },
    {
      "bufferView": 0,
      "byteOffset": 209640,
      "componentType": 5125,
      "count": 47334,
      "type": "SCALAR"
    },
    {
      "bufferView": 2,
      "byteOffset": 471792,
      "componentType": 5126,
      "count": 3356,
      "max": [
        9.36966323852539,
        9.647412300109863,
        7.089532852172852
      ],
      "min": [
        -9.234149932861328,
        8.161605834960938,
        2.2646310329437256
      ],
      "type": "VEC3"
    },
    {
      "bufferView": 2,
      "byteOffset": 512064,
      "componentType": 5126,
      "count": 3356,
      "max": [
        0.9999923706054688,
        0.9999923706054688,
        1.0
      ],
      "min": [
        -0.9999923706054688,
        -0.9999923706054688,
        -1.0
      ],
      "type": "VEC3"
    },
    {
      "bufferView": 1,
      "byteOffset": 157264,
      "componentType": 5126,
      "count": 3356,
      "max": [
        0.9555559754371643,
        1.0
      ],
      "min": [
        0.0,
        0.0
      ],
      "type": "VEC2"
    },
    {
      "bufferView": 0,
      "byteOffset": 398976,
      "componentType": 5125,
      "count": 13992,
      "type": "SCALAR"
    },
    {
      "bufferView": 2,
      "byteOffset": 552336,
      "componentType": 5126,
      "count": 9785,
      "max": [
        9.105920791625977,
        2.4743709564208984,
        6.095248222351074
      ],
      "min": [
        -8.947860717773438,
        -9.116475105285645,
        2.1454999446868896
      ],
      "type": "VEC3"
    },
    {
      "bufferView": 2,
      "byteOffset": 669756,
      "componentType": 5126,
      "count": 9785,
      "max": [
        1.0,
        1.0,
        1.0
      ],
      "min": [
        -1.0,
        -1.0,
        -1.0
      ],
      "type": "VEC3"
    },
    {
      "bufferView": 1,
      "byteOffset": 184112,
      "componentType": 5126,
      "count": 9785,
      "max": [
        1.0,
        1.0
      ],
      "min": [
        0.0,
        0.0
      ],
      "type": "VEC2"
    },
    {
      "bufferView": 0,
      "byteOffset": 454944,
      "componentType": 5125,
      "count": 50058,
      "type": "SCALAR"
    },
    {
      "bufferView": 2,
      "byteOffset": 787176,
      "componentType": 5126,
      "count": 9062,
      "max": [
        8.971940040588379,
        0.10499200224876404,
        5.315830230712891
      ],
      "min": [
        -9.164013862609863,
        -8.932087898254395,
        2.1454999446868896
      ],
      "type": "VEC3"
    },
    {
      "bufferView": 2,
      "byteOffset": 895920,
      "componentType": 5126,
      "count": 9062,
      "max": [
        1.0,
        1.0,
        1.0
      ],
      "min": [
        -1.0,
        -1.0,
        -1.0
      ],
      "type": "VEC3"
    },
    {
      "bufferView": 1,
      "byteOffset": 262392,
      "componentType": 5126,
      "count": 9062,
      "max": [
        1.0,
        1.0
      ],
      "min": [
        0.0,
        0.0
      ],
      "type": "VEC2"
    },
    {
      "bufferView": 0,
      "byteOffset": 655176,
      "componentType": 5125,
      "count": 47334,
      "type": "SCALAR"
    },
    {
      "bufferView": 2,
      "byteOffset": 1004664,
      "componentType": 5126,
      "count": 3356,
      "max": [
        9.156549453735352,
        -7.412515163421631,
        6.849575996398926
      ],
      "min": [
        -9.151708602905273,
        -8.898321151733398,
        2.2141571044921875
      ],
      "type": "VEC3"
    },
    {
      "bufferView": 2,
      "byteOffset": 1044936,
      "componentType": 5126,
      "count": 3356,
      "max": [
        0.9999923706054688,
        0.9999923706054688,
        1.0
      ],
      "min": [
        -0.9999923706054688,
        -0.9999923706054688,
        -1.0
      ],
      "type": "VEC3"
    },
    {
      "bufferView": 1,
      "byteOffset": 334888,
      "componentType": 5126,
      "count": 3356,
      "max": [
        0.9555559754371643,
        1.0
      ],
      "min": [
        0.0,
        0.0
      ],
      "type": "VEC2"
    },
    {
      "bufferView": 0,
      "byteOffset": 844512,
      "componentType": 5125,
      "count": 13992,
      "type": "SCALAR"
    }
  ],
  "asset": {
    "extras": {
      "author": "Ollendorf (https://sketchfab.com/OllendorfDev)",
      "license": "CC-BY-4.0 (http://creativecommons.org/licenses/by/4.0/)",
      "source": "https://sketchfab.com/3d-models/ajedrez-09cce0fb2e97412c8c74fc10184bce35",
      "title": "Ajedrez"
    },
    "generator": "Sketchfab-12.65.0",
    "version": "2.0"
  },
  "bufferViews": [
    {
      "buffer": 0,
      "byteLength": 900480,
      "name": "floatBufferViews",
      "target": 34963
    },
    {
      "buffer": 0,
      "byteLength": 361736,
      "byteOffset": 900480,
      "byteStride": 8,
      "name": "floatBufferViews",
      "target": 34962
    },
    {
      "buffer": 0,
      "byteLength": 1085208,
      "byteOffset": 1262216,
      "byteStride": 12,
      "name": "floatBufferViews",
      "target": 34962
    }
  ],
  "buffers": [
    {
      "byteLength": 2347424,
      "uri": "scene.bin"
    }
  ],
  "materials": [
    {
      "doubleSided": true,
      "name": "blinn2SG",
      "pbrMetallicRoughness": {
        "baseColorFactor": [
          0.07,
          0.04,
          0.04,
          1.0
        ],
        "metallicFactor": 0.0,
        "roughnessFactor": 0.6
      }
    },
    {
      "doubleSided": true,
      "name": "blinn3SG",
      "pbrMetallicRoughness": {
        "baseColorFactor": [
          0.02,
          0.02,
          0.02,
          1.0
        ],
        "metallicFactor": 0.0,
        "roughnessFactor": 0.6
      }
    },
    {
      "doubleSided": true,
      "name": "blinn4SG",
      "pbrMetallicRoughness": {
        "baseColorFactor": [
          0.82,
          0.82,
          0.82,
          1.0
        ],
        "metallicFactor": 0.0,
        "roughnessFactor": 0.6
      }
    },
    {
      "doubleSided": true,
      "name": "blinn5SG",
      "pbrMetallicRoughness": {
        "baseColorFactor": [
          0.63,
          0.62,
          0.46,
          1.0
        ],
        "metallicFactor": 0.0,
        "roughnessFactor": 0.6
      }
    },
    {
      "doubleSided": true,
      "name": "blinn6SG",
      "pbrMetallicRoughness": {
        "baseColorFactor": [
          0.03,
          0.03,
          0.03,
          1.0
        ],
        "metallicFactor": 0.0,
        "roughnessFactor": 0.6
      }
    },
    {
      "doubleSided": true,
      "name": "lambert3SG",
      "pbrMetallicRoughness": {
        "baseColorFactor": [
          0.29,
          0.21,
          0.21,
          1.0
        ],
        "metallicFactor": 0.0,
        "roughnessFactor": 0.6
      }
    }
  ],
  "meshes": [
    {
      "name": "Object_0",
      "primitives": [
        {
          "attributes": {
            "NORMAL": 1,
            "POSITION": 0,
            "TEXCOORD_0": 2
          },
          "indices": 3,
          "material": 1,
          "mode": 4
        }
      ]
    },
    {
      "name": "Object_1",
      "primitives": [
        {
          "attributes": {
            "NORMAL": 5,
            "POSITION": 4,
            "TEXCOORD_0": 6
          },
          "indices": 7,
          "material": 2,
          "mode": 4
        }
      ]
    },
    {
      "name": "Object_2",
      "primitives": [
        {
          "attributes": {
            "NORMAL": 9,
            "POSITION": 8,
            "TEXCOORD_0": 10
          },
          "indices": 11,
          "material": 3,
          "mode": 4
        }
      ]
    },
    {
      "name": "Object_3",
      "primitives": [
        {
          "attributes": {
            "NORMAL": 13,
            "POSITION": 12,
            "TEXCOORD_0": 14
          },
          "indices": 15,
          "material": 4,
          "mode": 4
        }
      ]
    },
    {
      "name": "Object_4",
      "primitives": [
        {
          "attributes": {
            "NORMAL": 17,
            "POSITION": 16,
            "TEXCOORD_0": 18
          },
          "indices": 19,
          "material": 5,
          "mode": 4
        }
      ]
    },
    {
      "name": "Object_5",
      "primitives": [
        {
          "attributes": {
            "NORMAL": 21,
            "POSITION": 20,
            "TEXCOORD_0": 22
          },
          "indices": 23,
          "material": 0,
          "mode": 4
        }
      ]
    },
    {
      "name": "Object_6",
      "primitives": [
        {
          "attributes": {
            "NORMAL": 25,
            "POSITION": 24,
            "TEXCOORD_0": 26
          },
          "indices": 27,
          "material": 3,
          "mode": 4
        }
      ]
    },
    {
      "name": "Object_7",
      "primitives": [
        {
          "attributes": {
            "NORMAL": 29,
            "POSITION": 28,
            "TEXCOORD_0": 30
          },
          "indices": 31,
          "material": 3,
          "mode": 4
        }
      ]
    },
    {
      "name": "Object_8",
      "primitives": [
        {
          "attributes": {
            "NORMAL": 33,
            "POSITION": 32,
            "TEXCOORD_0": 34
          },
          "indices": 35,
          "material": 3,
          "mode": 4
        }
      ]
    },
    {
      "name": "Object_9",
      "primitives": [
        {
          "attributes": {
            "NORMAL": 37,
            "POSITION": 36,
            "TEXCOORD_0": 38
          },
          "indices": 39,
          "material": 4,
          "mode": 4
        }
      ]
    },
    {
      "name": "Object_10",
      "primitives": [
        {
          "attributes": {
            "NORMAL": 41,
            "POSITION": 40,
            "TEXCOORD_0": 42
          },
          "indices": 43,
          "material": 4,
          "mode": 4
        }
      ]
    },
    {
      "name": "Object_11",
      "primitives": [
        {
          "attributes": {
            "NORMAL": 45,
            "POSITION": 44,
            "TEXCOORD_0": 46
          },
          "indices": 47,
          "material": 4,
          "mode": 4
        }
      ]
    }
  ],
  "nodes": [
    {
      "children": [
        1
      ],
      "matrix": [
        1.0,
        0.0,
        0.0,
        0.0,
        0.0,
        2.220446049250313e-16,
        -1.0,
        0.0,
        0.0,
        1.0,
        2.220446049250313e-16,
        0.0,
        0.0,
        0.0,
        0.0,
        1.0
      ],
      "name": "Sketchfab_model"
    },
    {
      "children": [
        2,
        3,
        4,
        5,
        6,
        7,
        8,
        9,
        10,
        11,
        12,
        13
      ],
      "name": "Ajedrez.obj.cleaner.materialmerger.gles"
    },
    {
      "mesh": 0,
      "name": "Object_2"
    },
    {
      "mesh": 1,
      "name": "Object_3"
    },
    {
      "mesh": 2,
      "name": "Object_4"
    },
    {
      "mesh": 3,
      "name": "Object_5"
    },
    {
      "mesh": 4,
      "name": "Object_6"
    },
    {
      "mesh": 5,
      "name": "Object_7"
    },
    {
      "mesh": 6,
      "name": "Object_8"
    },
    {
      "mesh": 7,
      "name": "Object_9"
    },
    {
      "mesh": 8,
      "name": "Object_10"
    },
    {
      "mesh": 9,
      "name": "Object_11"
    },
    {
      "mesh": 10,
      "name": "Object_12"
    },
    {
      "mesh": 11,
      "name": "Object_13"
    }
  ],
  "scene": 0,
  "scenes": [
    {
      "name": "Sketchfab_Scene",
      "nodes": [
        0
      ]
    }
  ]
}
